<svg xmlns:xlink="http://www.w3.org/1999/xlink" xmlns="http://www.w3.org/2000/svg" viewBox="0 0 1890 563.44" width="1890"  height="563.44" ><defs><style>.cls-1{fill:#e30613;}.cls-2{fill:#fff;}</style></defs><g id="Réteg_2" data-name="Réteg 2"><g id="Réteg_1" data-name="Réteg 1"><polygon class="cls-1" points="684.72 148.72 684.72 164.57 251.6 164.57 684.72 148.72"/><polygon class="cls-1" points="410.83 375.28 684.72 375.28 684.72 391.14 410.83 375.28"/><polygon class="cls-1" points="1173.25 148.72 1606.38 164.57 1173.25 164.57 1173.25 148.72"/><polygon class="cls-1" points="1173.25 375.28 1447.14 375.28 1173.25 391.14 1173.25 375.28"/><path class="cls-2" d="M1210.06,281.7c0,155.58-126.12,281.74-281.7,281.74S646.62,437.32,646.62,281.7,772.74,0,928.36,0s281.7,126.11,281.7,281.7"/><path class="cls-1" d="M873.43,345.07a64.94,64.94,0,0,0,20.91,18,51.17,51.17,0,0,0,24.25,6.24c1.88,0,3.77-.08,5.65-.24,1.41.08,2.86.24,4.28.24a44.76,44.76,0,0,0,22.6-6.47q11.13-6.48,20.17-19c6-8.39,10.87-18.71,14.6-31.07s5.57-26.57,5.57-42.62q0-22.06-5.46-39.31t-14.59-29a65.08,65.08,0,0,0-20.92-18,51.29,51.29,0,0,0-24.25-6.24c-1.92,0-3.77.08-5.65.23-1.41-.11-2.86-.23-4.32-.23a44.76,44.76,0,0,0-22.6,6.47q-11.17,6.48-20.17,19c-6,8.4-10.87,18.72-14.59,31.08s-5.57,26.57-5.57,42.62q0,22.06,5.45,39.31t14.64,29"/><path class="cls-1" d="M698.54,281.38a177.3,177.3,0,0,0,38.76,29.47q22.44,12.9,52,21c1.13.31,2.39.51,3.53.82a301.28,301.28,0,0,1,18-56.11,283.29,283.29,0,0,1,20.68-39.4V117.64q0-39.09-2-48.7c-1.18-6.08-3.14-10.24-5.85-12.44a15.61,15.61,0,0,0-10.16-3.29,37.3,37.3,0,0,0-4.87.39C735.7,92.17,683.47,164.65,673,250.07a207.06,207.06,0,0,0,25.51,31.31"/><path class="cls-1" d="M929,23.86a259.42,259.42,0,0,0-55.56,6V187.29c.78-.67,1.53-1.34,2.27-2q33-43.86,70.55-43.87a76,76,0,0,1,33.63,7.85A85.61,85.61,0,0,1,1008.29,172q12.3,14.83,19.66,35.91t7.34,47.71q0,62.16-41.13,99.71-31.3,28.66-68.59,32a205.93,205.93,0,0,1-42.49,2.79A249.91,249.91,0,0,1,832.93,383c2.32,20.09,11.18,54.31,45.52,66.87,100.8,21.58,175.28-120.39,180.62-135.1a50.64,50.64,0,0,1,6.43-12.4c2.36-3.18,4.36-5,6-5.42s2.87.71,3.65,3.3.24,6.94-1.61,13Q1061.82,355.56,1042,388t-43.87,54.74Q974,465,947.43,476.91c-17.77,8-35,12.29-51.83,13.07a113,113,0,0,1-47.76-7.93c-15.07-6-27.9-15.81-38.61-29.39q-15.94-19.59-20.09-48.89a185.12,185.12,0,0,1-1.26-35.63,286.63,286.63,0,0,1-33.7-17,282.93,282.93,0,0,1-57.45-44.77,231.11,231.11,0,0,1-25.5-30.49c0,1.92-.08,3.81-.08,5.73C671.15,424,786.59,539.46,929,539.46S1186.83,424,1186.83,281.62,1071.39,23.86,929,23.86"/><path d="M585.25,327.22c31.32,0,49.29-21.31,49.29-52.94,0-31.15-18.6-53-49.29-53-30.53,0-49.12,21.62-49.12,53s17.85,52.94,49.12,52.94m0-87.7c19.19,0,28.29,14.51,28.29,34.76,0,20.72-9.06,35.24-28.29,35.24s-28.13-15.11-28.13-35.24C557.16,254.31,566.06,239.52,585.25,239.52Zm-81.34,14.63c0,10-5.61,13.62-15.58,13.62h-24.8V240.69h26C498.93,240.73,503.91,244.81,503.91,254.15Zm21.35-2c0-21.15-11.81-29.31-33.12-29.31h-39c-5.88,0-10.59,5.14-10.59,11v91.79h21V285.78h22.37c12.4,0,14.67,3.92,15.42,16.32.16,10,.47,15.89.9,17.39a15.32,15.32,0,0,0,1.65,6.2h23.15c-2-1.38-3.18-3.61-3.33-6.79l-.91-20.13c-.47-6.67-1.37-11.81-3.18-15.27a18.65,18.65,0,0,0-9.8-7.1C519.64,273.69,525.26,265.22,525.26,252.19ZM351.07,233.9v7.26h30.37v84.53h21V241.16h30.41V222.88H361.67C355.74,222.88,351.07,228,351.07,233.9ZM340.91,290h-20.4c-2.28,11.34-9.81,18.6-23,18.6-19.19,0-27.5-14.21-27.5-34.34,0-20.72,8.63-34.49,28.13-34.49,10,0,16.79,3.77,20.25,11.18a10.22,10.22,0,0,0,9.81,6.2h12.71c-1.06-11.18-5.14-20.09-12.4-26.6-7.69-6.36-17.85-9.38-30.37-9.38-32.49,0-49.13,20-49.13,53.05,0,32.06,15.74,52.94,47.32,52.94C322.35,327.22,339,313.76,340.91,290ZM165.24,325.69h74.39V306.77H186v-26.6h29.2c7.41,0,11-3.49,10.87-10.6v-6.79H186V240.69h53.68V222.84h-63.8c-7.1.16-10.59,3.92-10.59,11v91.82ZM84.64,233.9v91.79h71.22V306.77H105.67V222.84H95.23C89.35,222.88,84.64,228,84.64,233.9ZM0,325.69H74.4V306.77H20.72v-26.6H49.91c7.42,0,11-3.49,10.87-10.6v-6.79H20.72V240.69H74.4V222.84H10.59C3.49,223,0,226.76,0,233.87Z"/><path d="M1849.11,309.79c-13.46,0-20.41-5.45-21.15-16.32h-20.41c.59,22.37,14.37,33.71,41.6,33.71,26,0,39.59-10,40.81-30.1q.88-19.49-16.33-25.39a237.86,237.86,0,0,0-24.48-7.1c-13.46-3-20-7.73-20-14.2.47-7.85,5.88-11.93,16.79-12.09,8.91,0,15.11,2.86,18.6,8.75,2,3.92,5,6,9.38,6h11.81c-1.22-21.3-13.77-31.9-38-31.9-25.38-.16-38.25,10.44-38.69,32.06,0,13.62,10,23,30.1,28.13,7.42,2,14.36,3.77,20.41,5.62,6.35,1.8,9.37,5.14,9.37,10.12C1869.08,305.6,1862.57,309.79,1849.11,309.79Zm-94.21,0c-13.46,0-20.41-5.45-21.15-16.32h-20.41c.59,22.37,14.36,33.71,41.59,33.71,26,0,39.6-10,40.81-30.1.59-13-4.82-21.46-16.32-25.39a237.29,237.29,0,0,0-24.49-7.1c-13.45-3-20-7.73-20-14.2.47-7.85,5.89-11.93,16.8-12.09,8.9,0,15.1,2.86,18.6,8.75,2,3.92,5,6,9.37,6h11.81c-1.21-21.3-13.77-31.9-37.94-31.9-25.39-.16-38.26,10.44-38.69,32.06,0,13.62,10,23,30.1,28.13,7.41,2,14.36,3.77,20.4,5.62,6.36,1.8,9.38,5.14,9.38,10.12C1774.87,305.6,1768.35,309.79,1754.9,309.79Zm-127.77,15.9h74.4V306.77h-53.68v-26.6H1677c7.42,0,11-3.49,10.87-10.6v-6.79h-40.06V240.69h53.68V222.84h-63.8c-7.11.16-10.6,3.92-10.6,11ZM1531,233.9v91.79h20.71v-70.6l41.87,70.6h21.94V222.88H1594.8v70.59l-41.87-70.59h-11.34C1535.67,222.88,1531,228,1531,233.9Zm-31.75,91.79h21V222.88h-10.43c-7.11,0-10.6,3.77-10.6,11Zm-51.13-15.9c-13.46,0-20.4-5.45-21.15-16.32h-20.4c.59,22.37,14.36,33.71,41.59,33.71,26,0,39.59-10,40.81-30.1q.88-19.49-16.32-25.39a238,238,0,0,0-24.49-7.1c-13.46-3-20-7.73-20-14.2.47-7.85,5.89-11.93,16.79-12.09,8.91,0,15.11,2.86,18.6,8.75,2,3.92,5,6,9.38,6h11.81c-1.21-21.3-13.77-31.9-37.94-31.9-25.39-.16-38.26,10.44-38.69,32.06,0,13.62,10,23,30.1,28.13,7.41,2,14.36,3.77,20.4,5.62,6.36,1.8,9.38,5.14,9.38,10.12C1468.1,305.6,1461.58,309.79,1448.12,309.79ZM1313.89,233.9v54.9c0,26,14.51,38.42,40.8,38.42,25.86,0,40.66-13.15,40.66-38.42V222.88h-20.88v63.49c0,15.1-6.67,22.83-19.81,22.68s-19.82-7.73-19.82-22.68V222.88H1324.4C1318.71,222.88,1313.89,228.33,1313.89,233.9ZM1282,293.78c0,10.28-6.35,13.31-16.79,13.31H1240.7V280.17h24.18C1275.78,280.17,1282,283.19,1282,293.78Zm-2.59-42.18c0,8.63-6.78,11.19-15.1,11.19H1240.7v-22.1H1264C1273.51,240.73,1279.39,243,1279.39,251.6Zm24.8,42.77c0-13.61-5.88-20.24-16-24.17,8-3.92,12.4-10.44,12.4-21.31,0-18.28-12.87-26-32.21-26h-37.79c-5.88,0-10.59,5.14-10.59,11v91.79h46.73C1288.93,325.69,1304.19,315.72,1304.19,294.37Z"/></g></g></svg>